<?xml version="1.0" standalone="no"?><!DOCTYPE svg PUBLIC "-//W3C//DTD SVG 1.1//EN" "http://www.w3.org/Graphics/SVG/1.1/DTD/svg11.dtd"><svg t="1638411977810" class="icon" viewBox="0 0 1024 1024" version="1.1" xmlns="http://www.w3.org/2000/svg" p-id="2957" xmlns:xlink="http://www.w3.org/1999/xlink" width="200" height="200"><defs><style type="text/css"></style></defs><path d="M938.633323 570.21589 554.672082 742.800573c-36.761735 15.990183-51.399706 15.990183-85.329837 0L85.366677 570.21589c-20.383048-10.82658-25.879451-50.886971-25.879451-72.745814 25.630777 14.637372 61.674122 30.959106 60.334559 30.131251l392.178726 180.787506 392.19203-180.787506c0.662106-0.165776 35.628888-17.786085 60.320232-30.131251C964.512773 519.839549 957.57959 561.377594 938.633323 570.21589zM938.633323 389.413034 554.672082 562.012044c-36.761735 15.991206-51.399706 15.991206-85.329837 0L85.366677 389.413034c-30.160116-16.004509-29.221706-66.407456 0-85.229127L469.342245 101.453646c33.930131-16.943904 55.155394-17.882276 85.329837 0l383.961241 202.730261C967.854005 320.188416 966.887964 376.225687 938.633323 389.413034zM511.999488 135.865387 119.820762 346.798471l392.178726 165.252695L904.192541 346.798471 511.999488 135.865387zM511.999488 135.865387M511.999488 889.202944l392.19203-180.815135c0.662106-0.165776 35.628888-17.786085 60.320232-30.130228 0 22.369473-6.93216 63.907519-25.879451 72.745814L554.672082 923.615709c-36.761735 15.990183-51.399706 15.990183-85.329837 0L85.366677 751.002372c-20.383048-10.82658-25.879451-50.872644-25.879451-72.745814 25.630777 14.637372 61.674122 30.959106 60.334559 30.130228L511.999488 889.202944z" p-id="2958"></path></svg>