<?xml version="1.0" standalone="no"?><!DOCTYPE svg PUBLIC "-//W3C//DTD SVG 1.1//EN" "http://www.w3.org/Graphics/SVG/1.1/DTD/svg11.dtd"><svg t="1638343089361" class="icon" viewBox="0 0 1024 1024" version="1.1" xmlns="http://www.w3.org/2000/svg" p-id="11202" xmlns:xlink="http://www.w3.org/1999/xlink" width="200" height="200"><defs><style type="text/css"></style></defs><path d="M928.426667 458.453333a61.013333 61.013333 0 0 0-51.626667-27.733333h-59.52v-58.666667a100.053333 100.053333 0 0 0-98.346667-101.333333H498.133333L344.106667 170.666667H183.68A100.053333 100.053333 0 0 0 85.333333 272v539.946667A42.666667 42.666667 0 0 0 128 853.333333h620.8a62.08 62.08 0 0 0 56.96-37.333333l128-300.16a59.946667 59.946667 0 0 0-5.333333-57.386667zM128 713.813333V272A57.173333 57.173333 0 0 1 183.68 213.333333h147.84l154.026667 100.053334H718.933333a57.173333 57.173333 0 0 1 55.68 58.666666v58.666667H277.333333a62.08 62.08 0 0 0-58.026666 39.893333zM894.506667 499.2l-77.226667 180.906667-50.773333 119.04a19.2 19.2 0 0 1-17.706667 11.52l-612.053333 1.92 121.813333-326.4a19.413333 19.413333 0 0 1 18.133333-12.16H876.8a18.986667 18.986667 0 0 1 16.213333 8.533333 18.346667 18.346667 0 0 1 1.493334 16.64z" p-id="11203"></path></svg>