<?xml version="1.0" standalone="no"?><!DOCTYPE svg PUBLIC "-//W3C//DTD SVG 1.1//EN" "http://www.w3.org/Graphics/SVG/1.1/DTD/svg11.dtd"><svg t="1638334169417" class="icon" viewBox="0 0 1024 1024" version="1.1" xmlns="http://www.w3.org/2000/svg" p-id="2957" xmlns:xlink="http://www.w3.org/1999/xlink" width="200" height="200"><defs><style type="text/css"></style></defs><path d="M878.08 466.944l-129.3824-253.0816a98.8672 98.8672 0 0 0-88.064-53.8624H366.08c-36.864 0-70.656 20.48-87.6544 53.1456l-132.096 253.0816a98.8672 98.8672 0 0 0 0 91.5456l132.096 253.0816a98.8672 98.8672 0 0 0 87.6544 53.1456h294.5536c37.1712 0 71.168-20.7872 88.064-53.8624l129.3824-253.1328a98.8672 98.8672 0 0 0 0-90.0096z m-72.3968 372.3264a162.8672 162.8672 0 0 1-145.0496 88.7296H366.08a162.8672 162.8672 0 0 1-144.384-87.552l-132.096-253.0816a162.8672 162.8672 0 0 1 0-150.7328l132.096-253.1328a162.8672 162.8672 0 0 1 144.384-87.5008h294.5536c61.184 0 117.1968 34.304 145.0496 88.7296l129.3824 253.1328c23.808 46.592 23.808 101.7344 0 148.2752l-129.3824 253.1328z" p-id="2958"></path><path d="M512 697.6a185.6 185.6 0 1 1 0-371.2 185.6 185.6 0 0 1 0 371.2z m0-64a121.6 121.6 0 1 0 0-243.2 121.6 121.6 0 0 0 0 243.2z" p-id="2959"></path></svg>